<svg width="207" height="49" viewBox="0 0 207 49" fill="none" xmlns="http://www.w3.org/2000/svg">
<path d="M99.92 29.34C99.92 30.14 99.7133 30.8133 99.3 31.36C98.8867 31.8933 98.3267 32.3 97.62 32.58C96.9267 32.86 96.1667 33 95.34 33H88.48V18.8H96.08C96.7467 18.8 97.32 18.98 97.8 19.34C98.2933 19.6867 98.6667 20.14 98.92 20.7C99.1867 21.2467 99.32 21.82 99.32 22.42C99.32 23.1 99.1467 23.7467 98.8 24.36C98.4533 24.9733 97.9467 25.4267 97.28 25.72C98.0933 25.96 98.7333 26.3933 99.2 27.02C99.68 27.6467 99.92 28.42 99.92 29.34ZM97.14 28.82C97.14 28.46 97.0667 28.14 96.92 27.86C96.7733 27.5667 96.5733 27.34 96.32 27.18C96.08 27.0067 95.8 26.92 95.48 26.92H91.24V30.66H95.34C95.6733 30.66 95.9733 30.58 96.24 30.42C96.52 30.2467 96.74 30.02 96.9 29.74C97.06 29.46 97.14 29.1533 97.14 28.82ZM91.24 21.16V24.74H94.92C95.2267 24.74 95.5067 24.6667 95.76 24.52C96.0133 24.3733 96.2133 24.1667 96.36 23.9C96.52 23.6333 96.6 23.3133 96.6 22.94C96.6 22.58 96.5267 22.2667 96.38 22C96.2467 21.7333 96.06 21.5267 95.82 21.38C95.5933 21.2333 95.3333 21.16 95.04 21.16H91.24ZM113.514 29.34C113.514 30.14 113.307 30.8133 112.894 31.36C112.48 31.8933 111.92 32.3 111.214 32.58C110.52 32.86 109.76 33 108.934 33H102.074V18.8H109.674C110.34 18.8 110.914 18.98 111.394 19.34C111.887 19.6867 112.26 20.14 112.514 20.7C112.78 21.2467 112.914 21.82 112.914 22.42C112.914 23.1 112.74 23.7467 112.394 24.36C112.047 24.9733 111.54 25.4267 110.874 25.72C111.687 25.96 112.327 26.3933 112.794 27.02C113.274 27.6467 113.514 28.42 113.514 29.34ZM110.734 28.82C110.734 28.46 110.66 28.14 110.514 27.86C110.367 27.5667 110.167 27.34 109.914 27.18C109.674 27.0067 109.394 26.92 109.074 26.92H104.834V30.66H108.934C109.267 30.66 109.567 30.58 109.834 30.42C110.114 30.2467 110.334 30.02 110.494 29.74C110.654 29.46 110.734 29.1533 110.734 28.82ZM104.834 21.16V24.74H108.514C108.82 24.74 109.1 24.6667 109.354 24.52C109.607 24.3733 109.807 24.1667 109.954 23.9C110.114 23.6333 110.194 23.3133 110.194 22.94C110.194 22.58 110.12 22.2667 109.974 22C109.84 21.7333 109.654 21.5267 109.414 21.38C109.187 21.2333 108.927 21.16 108.634 21.16H104.834ZM124.128 22.52C124.034 22.4267 123.861 22.3 123.608 22.14C123.368 21.98 123.068 21.8267 122.708 21.68C122.361 21.5333 121.981 21.4067 121.568 21.3C121.154 21.18 120.734 21.12 120.308 21.12C119.561 21.12 118.994 21.26 118.608 21.54C118.234 21.82 118.048 22.2133 118.048 22.72C118.048 23.1067 118.168 23.4133 118.408 23.64C118.648 23.8667 119.008 24.06 119.488 24.22C119.968 24.38 120.568 24.5533 121.288 24.74C122.221 24.9667 123.028 25.2467 123.708 25.58C124.401 25.9 124.928 26.3267 125.288 26.86C125.661 27.38 125.848 28.0733 125.848 28.94C125.848 29.7 125.708 30.3533 125.428 30.9C125.148 31.4333 124.761 31.8667 124.268 32.2C123.774 32.5333 123.214 32.78 122.588 32.94C121.961 33.0867 121.294 33.16 120.588 33.16C119.881 33.16 119.174 33.0867 118.468 32.94C117.761 32.7933 117.081 32.5867 116.428 32.32C115.774 32.04 115.174 31.7067 114.628 31.32L115.848 28.94C115.968 29.06 116.181 29.22 116.488 29.42C116.794 29.6067 117.168 29.8 117.608 30C118.048 30.1867 118.528 30.3467 119.048 30.48C119.568 30.6133 120.094 30.68 120.628 30.68C121.374 30.68 121.941 30.5533 122.328 30.3C122.714 30.0467 122.908 29.6867 122.908 29.22C122.908 28.7933 122.754 28.46 122.448 28.22C122.141 27.98 121.714 27.7733 121.168 27.6C120.621 27.4133 119.974 27.2133 119.228 27C118.334 26.7467 117.588 26.4667 116.988 26.16C116.388 25.84 115.941 25.44 115.648 24.96C115.354 24.48 115.208 23.88 115.208 23.16C115.208 22.1867 115.434 21.3733 115.888 20.72C116.354 20.0533 116.981 19.5533 117.768 19.22C118.554 18.8733 119.428 18.7 120.388 18.7C121.054 18.7 121.681 18.7733 122.268 18.92C122.868 19.0667 123.428 19.26 123.948 19.5C124.468 19.74 124.934 20 125.348 20.28L124.128 22.52ZM132.738 33V18.8H142.278V21.22H135.498V24.88H141.138V27.12H135.498V33H132.738ZM143.962 33V22.52H146.642V33H143.962ZM143.962 21.06V18.4H146.642V21.06H143.962ZM158.8 33H156.12V27.12C156.12 26.28 155.973 25.6667 155.68 25.28C155.387 24.8933 154.98 24.7 154.46 24.7C154.1 24.7 153.733 24.7933 153.36 24.98C153 25.1667 152.673 25.4267 152.38 25.76C152.087 26.08 151.873 26.4533 151.74 26.88V33H149.06V22.52H151.48V24.46C151.747 24.0067 152.087 23.6267 152.5 23.32C152.913 23 153.387 22.76 153.92 22.6C154.467 22.4267 155.04 22.34 155.64 22.34C156.293 22.34 156.827 22.46 157.24 22.7C157.667 22.9267 157.987 23.24 158.2 23.64C158.427 24.0267 158.58 24.4667 158.66 24.96C158.753 25.4533 158.8 25.9533 158.8 26.46V33ZM160.41 29.9C160.41 29.22 160.597 28.6267 160.97 28.12C161.357 27.6 161.89 27.2 162.57 26.92C163.25 26.64 164.03 26.5 164.91 26.5C165.35 26.5 165.797 26.5333 166.25 26.6C166.703 26.6667 167.097 26.7733 167.43 26.92V26.36C167.43 25.6933 167.23 25.18 166.83 24.82C166.443 24.46 165.863 24.28 165.09 24.28C164.517 24.28 163.97 24.38 163.45 24.58C162.93 24.78 162.383 25.0733 161.81 25.46L160.95 23.7C161.643 23.2467 162.35 22.9067 163.07 22.68C163.803 22.4533 164.57 22.34 165.37 22.34C166.863 22.34 168.023 22.7133 168.85 23.46C169.69 24.2067 170.11 25.2733 170.11 26.66V30C170.11 30.28 170.157 30.48 170.25 30.6C170.357 30.72 170.523 30.7933 170.75 30.82V33C170.51 33.04 170.29 33.0733 170.09 33.1C169.903 33.1267 169.743 33.14 169.61 33.14C169.077 33.14 168.67 33.02 168.39 32.78C168.123 32.54 167.957 32.2467 167.89 31.9L167.83 31.36C167.377 31.9467 166.81 32.4 166.13 32.72C165.45 33.04 164.757 33.2 164.05 33.2C163.357 33.2 162.73 33.06 162.17 32.78C161.623 32.4867 161.19 32.0933 160.87 31.6C160.563 31.0933 160.41 30.5267 160.41 29.9ZM166.93 30.44C167.077 30.28 167.197 30.12 167.29 29.96C167.383 29.8 167.43 29.6533 167.43 29.52V28.46C167.11 28.3267 166.763 28.2267 166.39 28.16C166.017 28.08 165.663 28.04 165.33 28.04C164.637 28.04 164.063 28.1933 163.61 28.5C163.17 28.7933 162.95 29.1867 162.95 29.68C162.95 29.9467 163.023 30.2 163.17 30.44C163.317 30.68 163.53 30.8733 163.81 31.02C164.09 31.1667 164.423 31.24 164.81 31.24C165.21 31.24 165.603 31.1667 165.99 31.02C166.377 30.86 166.69 30.6667 166.93 30.44ZM182.355 33H179.675V27.12C179.675 26.28 179.528 25.6667 179.235 25.28C178.941 24.8933 178.535 24.7 178.015 24.7C177.655 24.7 177.288 24.7933 176.915 24.98C176.555 25.1667 176.228 25.4267 175.935 25.76C175.641 26.08 175.428 26.4533 175.295 26.88V33H172.615V22.52H175.035V24.46C175.301 24.0067 175.641 23.6267 176.055 23.32C176.468 23 176.941 22.76 177.475 22.6C178.021 22.4267 178.595 22.34 179.195 22.34C179.848 22.34 180.381 22.46 180.795 22.7C181.221 22.9267 181.541 23.24 181.755 23.64C181.981 24.0267 182.135 24.4667 182.215 24.96C182.308 25.4533 182.355 25.9533 182.355 26.46V33ZM189.565 33.2C188.712 33.2 187.945 33.06 187.265 32.78C186.585 32.4867 186.005 32.0867 185.525 31.58C185.045 31.06 184.672 30.4733 184.405 29.82C184.152 29.1667 184.025 28.48 184.025 27.76C184.025 26.7733 184.245 25.8733 184.685 25.06C185.138 24.2333 185.778 23.5733 186.605 23.08C187.432 22.5867 188.412 22.34 189.545 22.34C190.678 22.34 191.652 22.5867 192.465 23.08C193.278 23.5733 193.885 24.22 194.285 25.02L191.665 25.82C191.438 25.4333 191.138 25.14 190.765 24.94C190.392 24.7267 189.978 24.62 189.525 24.62C189.018 24.62 188.552 24.7533 188.125 25.02C187.712 25.2733 187.385 25.64 187.145 26.12C186.905 26.5867 186.785 27.1333 186.785 27.76C186.785 28.3733 186.905 28.92 187.145 29.4C187.398 29.8667 187.732 30.24 188.145 30.52C188.558 30.7867 189.018 30.92 189.525 30.92C189.845 30.92 190.145 30.8667 190.425 30.76C190.718 30.6533 190.978 30.5067 191.205 30.32C191.432 30.1333 191.598 29.92 191.705 29.68L194.325 30.48C194.085 31 193.732 31.4667 193.265 31.88C192.812 32.2933 192.272 32.62 191.645 32.86C191.032 33.0867 190.338 33.2 189.565 33.2ZM200.736 33.2C199.896 33.2 199.136 33.06 198.456 32.78C197.776 32.4867 197.196 32.0933 196.716 31.6C196.236 31.0933 195.863 30.52 195.596 29.88C195.343 29.2267 195.216 28.54 195.216 27.82C195.216 26.82 195.436 25.9067 195.876 25.08C196.33 24.2533 196.97 23.5933 197.796 23.1C198.636 22.5933 199.623 22.34 200.756 22.34C201.903 22.34 202.883 22.5933 203.696 23.1C204.51 23.5933 205.13 24.2533 205.556 25.08C205.996 25.8933 206.216 26.7733 206.216 27.72C206.216 27.88 206.21 28.0467 206.196 28.22C206.183 28.38 206.17 28.5133 206.156 28.62H198.056C198.11 29.1533 198.263 29.62 198.516 30.02C198.783 30.42 199.116 30.7267 199.516 30.94C199.93 31.14 200.37 31.24 200.836 31.24C201.37 31.24 201.87 31.1133 202.336 30.86C202.816 30.5933 203.143 30.2467 203.316 29.82L205.616 30.46C205.363 30.9933 204.996 31.4667 204.516 31.88C204.05 32.2933 203.496 32.62 202.856 32.86C202.216 33.0867 201.51 33.2 200.736 33.2ZM197.996 26.92H203.476C203.423 26.3867 203.27 25.9267 203.016 25.54C202.776 25.14 202.456 24.8333 202.056 24.62C201.656 24.3933 201.21 24.28 200.716 24.28C200.236 24.28 199.796 24.3933 199.396 24.62C199.01 24.8333 198.69 25.14 198.436 25.54C198.196 25.9267 198.05 26.3867 197.996 26.92Z" fill="#131815"/>
<path fill-rule="evenodd" clip-rule="evenodd" d="M54 47.2C59.081 47.2 63.2 43.081 63.2 38C63.2 32.919 59.081 28.8 54 28.8C48.919 28.8 44.8 32.919 44.8 38C44.8 43.081 48.919 47.2 54 47.2ZM54 49C60.0751 49 65 44.0751 65 38C65 31.9249 60.0751 27 54 27C47.9249 27 43 31.9249 43 38C43 44.0751 47.9249 49 54 49Z" fill="#131815"/>
<path fill-rule="evenodd" clip-rule="evenodd" d="M6.5 24.5C9.26142 24.5 11.5 22.2614 11.5 19.5C11.5 16.7386 9.26142 14.5 6.5 14.5C3.73858 14.5 1.5 16.7386 1.5 19.5C1.5 22.2614 3.73858 24.5 6.5 24.5ZM6.5 26C10.0899 26 13 23.0899 13 19.5C13 15.9101 10.0899 13 6.5 13C2.91015 13 0 15.9101 0 19.5C0 23.0899 2.91015 26 6.5 26Z" fill="#131815"/>
<path fill-rule="evenodd" clip-rule="evenodd" d="M62 10.5C64.4853 10.5 66.5 8.48528 66.5 6C66.5 3.51472 64.4853 1.5 62 1.5C59.5147 1.5 57.5 3.51472 57.5 6C57.5 8.48528 59.5147 10.5 62 10.5ZM62 12C65.3137 12 68 9.31371 68 6C68 2.68629 65.3137 0 62 0C58.6863 0 56 2.68629 56 6C56 9.31371 58.6863 12 62 12Z" fill="#131815"/>
<path fill-rule="evenodd" clip-rule="evenodd" d="M24.1289 15.1539C23.7881 14.337 23.6 13.4405 23.6 12.5C23.6 8.68924 26.6892 5.6 30.5 5.6C34.3108 5.6 37.4 8.68924 37.4 12.5C37.4 15.4395 35.5618 17.9498 32.9722 18.9439C32.9906 19.1268 33 19.3123 33 19.5C33 19.8991 32.9575 20.2883 32.8768 20.6632C36.4144 19.635 39 16.3694 39 12.5C39 7.80558 35.1944 4 30.5 4C25.8056 4 22 7.80558 22 12.5C22 13.9094 22.343 15.2387 22.9501 16.4089C23.2752 15.9314 23.6735 15.5077 24.1289 15.1539Z" fill="#131815"/>
<path fill-rule="evenodd" clip-rule="evenodd" d="M27.5 23.6C29.7644 23.6 31.6 21.7644 31.6 19.5C31.6 17.2356 29.7644 15.4 27.5 15.4C25.2356 15.4 23.4 17.2356 23.4 19.5C23.4 21.7644 25.2356 23.6 27.5 23.6ZM27.5 25C30.5376 25 33 22.5376 33 19.5C33 16.4624 30.5376 14 27.5 14C24.4624 14 22 16.4624 22 19.5C22 22.5376 24.4624 25 27.5 25Z" fill="#131815"/>
<path fill-rule="evenodd" clip-rule="evenodd" d="M17 38.1372C18.6569 38.1372 20 36.7941 20 35.1372C20 33.4804 18.6569 32.1372 17 32.1372C15.3431 32.1372 14 33.4804 14 35.1372C14 36.7941 15.3431 38.1372 17 38.1372ZM17 39.1372C19.2091 39.1372 21 37.3463 21 35.1372C21 32.9281 19.2091 31.1372 17 31.1372C14.7909 31.1372 13 32.9281 13 35.1372C13 37.3463 14.7909 39.1372 17 39.1372Z" fill="#131815"/>
<path fill-rule="evenodd" clip-rule="evenodd" d="M44.371 9.32333L38.3989 10.5806L38.0898 9.11279L44.0619 7.85551L44.371 9.32333Z" fill="#131815"/>
<path fill-rule="evenodd" clip-rule="evenodd" d="M53.184 7.46782L48.434 8.46782L48.125 7L52.875 6L53.184 7.46782Z" fill="#131815"/>
<path fill-rule="evenodd" clip-rule="evenodd" d="M47.6249 29.6857L42.9999 25.0607L44.0605 24L48.6856 28.6251L47.6249 29.6857Z" fill="#131815"/>
<path fill-rule="evenodd" clip-rule="evenodd" d="M40.6249 22.6857L35.9999 18.0607L37.0605 17L41.6856 21.6251L40.6249 22.6857Z" fill="#131815"/>
<path fill-rule="evenodd" clip-rule="evenodd" d="M14.75 20L12 20L12 18.5L14.75 18.5L14.75 20ZM23 20L20.25 20L20.25 18.5L23 18.5L23 20Z" fill="#131815"/>
<path fill-rule="evenodd" clip-rule="evenodd" d="M22.5001 29.637L20.0001 33.137L18.7139 32.3652L21.2139 28.8652L22.5001 29.637Z" fill="#131815"/>
<path fill-rule="evenodd" clip-rule="evenodd" d="M26.5 23.9315L24.2862 27.0169L23 26.2451L24.9823 23.608L26.5 23.9315Z" fill="#131815"/>
</svg>
